SplineFontDB: 3.2
FontName: Vectr-Display-ZC-v1.1
FullName: Vectr ZC
FamilyName: Vectr
Weight: Regular
Copyright: Copyright (c) 2019, ZeusOfTheCrows
FontLog: "A special version of Vectr, kerned for my name. You probably want the normal version.+AAoACgAA-Moved ZC logo to asterisk (*), added caret (^), and improved circumflex accent.+AAoACgAA-Moved ZC logo to asterisk (*), added caret (^), and improved circumflex accent."
Version: 1.1
DefaultBaseFilename: Vectr ZC
ItalicAngle: 0
UnderlinePosition: -153
UnderlineWidth: 76
Ascent: 1515
Descent: 533
InvalidEm: 0
LayerCount: 3
Layer: 0 0 "Back" 1
Layer: 1 0 "Fore" 1
Layer: 2 0 "Back 2" 1
XUID: [1021 182 -1931692938 8846]
StyleMap: 0x0000
FSType: 0
OS2Version: 0
OS2_WeightWidthSlopeOnly: 0
OS2_UseTypoMetrics: 1
CreationTime: 1565815929
ModificationTime: 1566555457
PfmFamily: 17
TTFWeight: 400
TTFWidth: 5
LineGap: 136
VLineGap: 136
OS2TypoAscent: 0
OS2TypoAOffset: 1
OS2TypoDescent: 0
OS2TypoDOffset: 1
OS2TypoLinegap: 136
OS2WinAscent: 0
OS2WinAOffset: 1
OS2WinDescent: 0
OS2WinDOffset: 1
HheadAscent: 0
HheadAOffset: 1
HheadDescent: 0
HheadDOffset: 1
OS2Vendor: 'PfEd'
Lookup: 4 0 0 "'liga' Standard Ligatures lookup 0" { "'liga' Standard Ligatures lookup 0-1"  } ['liga' ('DFLT' <'dflt' > 'hani' <'dflt' > 'latn' <'dflt' > ) ]
Lookup: 258 0 0 "Pairwise Positioning (kerning) in Latin lookup 0" { "Pairwise Positioning (kerning) in Latin lookup 0-1" [307,30,0] "Pairwise Positioning (kerning) in Latin lookup 0-2" [307,30,0] } ['Cr  ' ('DFLT' <'dflt' > 'latn' <'dflt' > ) ]
MarkAttachClasses: 1
DEI: 91125
KernClass2: 7+ 6 "Pairwise Positioning (kerning) in Latin lookup 0-1"
 1 f
 1 r
 1 T
 1 C
 3 a q
 5 m n u
 9 d h i j l
 154 c e o q s egrave eacute ecircumflex edieresis ograve oacute ocircumflex otilde odieresis cacute ccircumflex cdotaccent ccaron emacron edotaccent ecaron oe
 15 b f h i j k l t
 9 m n p r u
 61 a agrave aacute acircumflex atilde adieresis aring ae amacron
 9 v w x y z

StartChar: v
Encoding: 118 118 0
Width: 1294
VWidth: 0
Flags: MW
LayerCount: 3
Fore
SplineSet
81 972 m 1
 457 972 l 1
 833 316 l 1
 645 -10 l 1
 81 972 l 1
833 972 m 1
 1209 972 l 1
 1022 646 l 1
 833 972 l 1
EndSplineSet
Validated: 1
EndChar

StartChar: w
Encoding: 119 119 1
Width: 1875
VWidth: 0
Flags: MW
LayerCount: 3
Fore
SplineSet
773 972 m 1
 1149 972 l 1
 1524 316 l 1
 1337 -10 l 1
 773 972 l 1
1524 972 m 1
 1901 972 l 1
 1713 646 l 1
 1524 972 l 1
21 972 m 1
 397 972 l 1
 773 316 l 1
 585 -10 l 1
 21 972 l 1
EndSplineSet
Validated: 1
EndChar

StartChar: x
Encoding: 120 120 2
Width: 1229
VWidth: 0
Flags: MW
LayerCount: 3
Fore
SplineSet
84 10 m 1
 243 231 l 1
 403 10 l 1
 84 10 l 1
822 972 m 5
 1141 972 l 5
 982 752 l 5
 822 972 l 5
1141 10 m 1
 765 10 l 1
 84 972 l 1
 460 972 l 1
 1141 10 l 1
EndSplineSet
Validated: 1
EndChar

StartChar: y
Encoding: 121 121 3
Width: 1293
VWidth: 0
Flags: HMW
LayerCount: 3
Fore
SplineSet
81 972 m 1
 457 972 l 1
 833 316 l 1
 645 -10 l 1
 81 972 l 1
833 972 m 1
 1209 972 l 1
 1022 646 l 1
 833 972 l 1
250 -533 m 0
 160 -533 87 -460 87 -370 c 0
 87 -280 160 -207 250 -207 c 2
 532 -207 l 1
 392 -450 l 2
 364 -500 311 -533 250 -533 c 0
EndSplineSet
Validated: 1
EndChar

StartChar: z
Encoding: 122 122 4
Width: 1248
VWidth: 0
Flags: HMW
LayerCount: 3
Fore
SplineSet
319 972 m 1
 92 645 l 1
 92 972 l 1
 319 972 l 1
922 10 m 1
 1149 337 l 1
 1149 10 l 1
 922 10 l 1
1149 972 m 1
 468 10 l 1
 92 10 l 1
 772 972 l 1
 1149 972 l 1
EndSplineSet
Validated: 1
EndChar

StartChar: r
Encoding: 114 114 5
Width: 1058
VWidth: 0
Flags: HMW
LayerCount: 3
Fore
SplineSet
802 982 m 0
 892 982 965 909 965 819 c 0
 965 729 892 656 802 656 c 0
 712 656 639 729 639 819 c 0
 639 909 712 982 802 982 c 0
558 977 m 1
 558 977 426 977 426 706 c 2
 426 10 l 1
 99 10 l 1
 99 977 l 1
 558 977 l 1
EndSplineSet
EndChar

StartChar: braceleft
Encoding: 123 123 6
Width: 933
VWidth: 0
Flags: HMW
LayerCount: 3
Fore
SplineSet
294 1136 m 0
 294 1407 547 1516 858 1516 c 1
 640 1516 620 1407 620 1136 c 0
 620 865 367 758 56 758 c 1
 274 758 294 865 294 1136 c 0
620 377 m 0
 620 106 640 -1 858 -1 c 1
 547 -1 294 106 294 377 c 0
 294 648 274 757 56 757 c 1
 367 757 620 648 620 377 c 0
EndSplineSet
Validated: 1
EndChar

StartChar: u
Encoding: 117 117 7
Width: 1250
VWidth: 0
Flags: MW
LayerCount: 3
Fore
SplineSet
782 972 m 1
 1108 972 l 1
 1108 0 l 1
 782 0 l 1
 782 972 l 1
80 271 m 2
 80 972 l 1
 407 972 l 1
 407 271 l 2
 407 91 490 61 547 61 c 0
 576 61 598 69 598 69 c 1
 497 25 406 0 328 0 c 0
 177 0 80 88 80 271 c 2
EndSplineSet
Validated: 1
EndChar

StartChar: t
Encoding: 116 116 8
Width: 839
VWidth: 0
Flags: MW
LayerCount: 3
Fore
SplineSet
515 977 m 1
 741 977 l 1
 741 652 l 1
 515 977 l 1
101 269 m 2
 101 1327 l 1
 428 1515 l 1
 428 269 l 2
 428 89 512 58 569 58 c 0
 597 58 619 66 619 66 c 1
 519 23 427 0 349 0 c 0
 198 0 101 85 101 269 c 2
EndSplineSet
Validated: 1
EndChar

StartChar: s
Encoding: 115 115 9
Width: 1116
VWidth: 0
Flags: MW
LayerCount: 3
Fore
SplineSet
323 0 m 0
 233 0 160 73 160 163 c 0
 160 253 233 326 323 326 c 0
 413 326 486 253 486 163 c 0
 486 73 413 0 323 0 c 0
562 634 m 0
 759 597 918 426 918 278 c 0
 918 272 917 267 917 261 c 0
 908 164 840 67 676 -10 c 1
 741 21 780 76 780 141 c 0
 780 234 675 324 545 348 c 0
 348 385 189 556 189 704 c 0
 189 710 190 715 190 721 c 0
 199 818 267 915 431 992 c 1
 366 961 327 906 327 841 c 0
 327 748 432 658 562 634 c 0
794 982 m 0
 884 982 957 909 957 819 c 0
 957 729 884 656 794 656 c 0
 704 656 631 729 631 819 c 0
 631 909 704 982 794 982 c 0
EndSplineSet
Validated: 1
EndChar

StartChar: q
Encoding: 113 113 10
Width: 1269
VWidth: 0
Flags: MW
LayerCount: 3
Fore
SplineSet
1162 -523 m 1
 836 -523 l 1
 836 972 l 1
 1162 972 l 1
 1162 -523 l 1
652 0 m 1
 341 0 88 220 88 491 c 0
 88 762 341 982 652 982 c 1
 434 982 414 762 414 491 c 0
 414 220 434 0 652 0 c 1
EndSplineSet
Validated: 1
EndChar

StartChar: p
Encoding: 112 112 11
Width: 1269
VWidth: 0
Flags: MW
LayerCount: 3
Fore
SplineSet
99 -523 m 1
 99 972 l 1
 426 972 l 1
 426 -523 l 1
 99 -523 l 1
609 0 m 1
 827 0 847 220 847 491 c 0
 847 762 827 982 609 982 c 1
 920 982 1174 762 1174 491 c 0
 1174 220 920 0 609 0 c 1
EndSplineSet
Validated: 1
EndChar

StartChar: o
Encoding: 111 111 12
Width: 1276
VWidth: 0
Flags: MW
LayerCount: 3
Fore
SplineSet
653 982 m 1
 964 982 1180 762 1180 491 c 0
 1180 220 964 0 653 0 c 1
 871 0 878 220 878 491 c 0
 878 762 871 982 653 982 c 1
616 982 m 1
 398 982 390 762 390 491 c 0
 390 220 398 0 616 0 c 1
 305 0 89 220 89 491 c 0
 89 762 305 982 616 982 c 1
EndSplineSet
Validated: 1
EndChar

StartChar: n
Encoding: 110 110 13
Width: 1232
VWidth: 0
Flags: MW
LayerCount: 3
Fore
SplineSet
426 10 m 1
 99 10 l 1
 99 982 l 1
 426 982 l 1
 426 10 l 1
1128 711 m 2
 1128 10 l 1
 801 10 l 1
 801 711 l 2
 801 891 717 921 660 921 c 0
 631 921 609 913 609 913 c 1
 710 957 802 982 880 982 c 0
 1031 982 1128 894 1128 711 c 2
EndSplineSet
Validated: 1
EndChar

StartChar: m
Encoding: 109 109 14
Width: 1884
VWidth: 0
Flags: MW
LayerCount: 3
Fore
SplineSet
1781 711 m 2
 1781 10 l 1
 1454 10 l 1
 1454 711 l 2
 1454 891 1371 921 1314 921 c 0
 1285 921 1263 913 1263 913 c 1
 1364 957 1455 982 1533 982 c 0
 1683 982 1781 894 1781 711 c 2
426 10 m 1
 99 10 l 1
 99 982 l 1
 426 982 l 1
 426 10 l 1
1103 711 m 2
 1103 10 l 1
 776 10 l 1
 776 711 l 2
 776 891 693 921 636 921 c 0
 607 921 585 913 585 913 c 1
 686 957 777 982 855 982 c 0
 1005 982 1103 894 1103 711 c 2
EndSplineSet
Validated: 1
EndChar

StartChar: l
Encoding: 108 108 15
Width: 537
VWidth: 0
Flags: MW
LayerCount: 3
Fore
SplineSet
429 1515 m 1
 429 10 l 1
 102 10 l 1
 102 1327 l 1
 429 1515 l 1
EndSplineSet
Validated: 1
EndChar

StartChar: k
Encoding: 107 107 16
Width: 1191
VWidth: 0
Flags: MW
LayerCount: 3
Fore
SplineSet
1107 10 m 1
 730 10 l 1
 430 435 l 1
 671 628 l 1
 1107 10 l 1
805 736 m 1
 805 977 l 1
 1107 977 l 1
 805 736 l 1
429 10 m 1
 102 10 l 1
 102 1505 l 1
 429 1505 l 1
 429 10 l 1
EndSplineSet
Validated: 1
EndChar

StartChar: j
Encoding: 106 106 17
Width: 535
VWidth: 0
Flags: HMW
LayerCount: 3
Fore
SplineSet
267 1515 m 0
 357 1515 431 1441 431 1351 c 0
 431 1261 357 1188 267 1188 c 0
 177 1188 104 1261 104 1351 c 0
 104 1441 177 1515 267 1515 c 0
104 -265 m 2
 104 972 l 1
 431 972 l 1
 431 -265 l 2
 431 -448 334 -533 183 -533 c 0
 105 -533 13 -511 -88 -467 c 1
 -88 -467 -66 -475 -37 -475 c 0
 20 -475 104 -445 104 -265 c 2
EndSplineSet
EndChar

StartChar: i
Encoding: 105 105 18
Width: 535
VWidth: 0
Flags: HMW
LayerCount: 3
Fore
SplineSet
267 1515 m 4
 357 1515 431 1441 431 1351 c 4
 431 1261 357 1188 267 1188 c 4
 177 1188 104 1261 104 1351 c 4
 104 1441 177 1515 267 1515 c 4
104 972 m 5
 431 972 l 5
 431 10 l 5
 104 10 l 5
 104 972 l 5
EndSplineSet
EndChar

StartChar: h
Encoding: 104 104 19
Width: 1233
VWidth: 0
Flags: MW
LayerCount: 3
Fore
SplineSet
429 10 m 1
 102 10 l 1
 102 1505 l 1
 429 1505 l 1
 429 10 l 1
1130 711 m 2
 1130 10 l 1
 804 10 l 1
 804 711 l 2
 804 891 720 921 663 921 c 0
 634 921 612 913 612 913 c 1
 713 957 804 982 882 982 c 0
 1033 982 1130 894 1130 711 c 2
EndSplineSet
Validated: 1
EndChar

StartChar: g
Encoding: 103 103 20
Width: 1216
VWidth: 0
Flags: MW
LayerCount: 3
Fore
SplineSet
966 1308 m 0
 1056 1308 1130 1235 1130 1145 c 0
 1130 1055 1056 982 966 982 c 0
 876 982 803 1055 803 1145 c 0
 803 1235 876 1308 966 1308 c 0
581 152 m 4
 852 152 1072 -101 1072 -412 c 5
 1072 -194 852 -174 581 -174 c 4
 310 -174 91 79 91 390 c 5
 91 172 310 152 581 152 c 4
541 392 m 1
 293 392 91 500 91 687 c 0
 91 874 293 982 541 982 c 1
 422 982 398 850 398 687 c 0
 398 524 422 392 541 392 c 1
590 982 m 1
 838 982 1040 874 1040 687 c 0
 1040 500 838 392 590 392 c 1
 709 392 733 524 733 687 c 0
 733 850 709 982 590 982 c 1
EndSplineSet
Validated: 1
EndChar

StartChar: f
Encoding: 102 102 21
Width: 1065
VWidth: 0
Flags: MW
LayerCount: 3
Fore
SplineSet
548 977 m 1
 775 977 l 1
 775 652 l 1
 548 977 l 1
818 1515 m 0
 908 1515 981 1441 981 1351 c 0
 981 1261 908 1188 818 1188 c 0
 728 1188 655 1261 655 1351 c 0
 655 1441 728 1515 818 1515 c 0
663 1515 m 1
 445 1515 426 1295 426 1024 c 2
 426 10 l 1
 99 10 l 1
 99 1024 l 2
 99 1295 352 1515 663 1515 c 1
EndSplineSet
Validated: 1
EndChar

StartChar: e
Encoding: 101 101 22
Width: 1396
VWidth: 0
Flags: MW
LayerCount: 3
Fore
SplineSet
654 982 m 1
 965 982 1218 762 1218 491 c 1
 892 491 l 1
 892 762 872 982 654 982 c 1
653 982 m 1
 435 982 415 762 415 491 c 0
 415 220 435 0 653 0 c 1
 342 0 89 220 89 491 c 0
 89 762 342 982 653 982 c 1
EndSplineSet
Validated: 1
EndChar

StartChar: d
Encoding: 100 100 23
Width: 1270
VWidth: 0
Flags: MW
LayerCount: 3
Fore
SplineSet
1162 1506 m 1
 1162 10 l 1
 836 10 l 1
 836 1506 l 1
 1162 1506 l 1
652 982 m 1
 434 982 414 762 414 491 c 0
 414 220 434 0 652 0 c 1
 341 0 88 220 88 491 c 0
 88 762 341 982 652 982 c 1
EndSplineSet
Validated: 1
EndChar

StartChar: backslash
Encoding: 92 92 25
Width: 1539
VWidth: 0
Flags: HMW
LayerCount: 3
Fore
SplineSet
1192 10 m 1
 851 10 l 1
 90 1505 l 1
 431 1505 l 1
 1192 10 l 1
EndSplineSet
Validated: 1
EndChar

StartChar: c
Encoding: 99 99 26
Width: 1103
VWidth: 0
Flags: MW
LayerCount: 3
Fore
SplineSet
775 977 m 1
 1002 977 l 1
 1002 652 l 1
 775 977 l 1
653 0 m 1
 342 0 89 220 89 491 c 0
 89 762 342 982 653 982 c 1
 435 982 415 762 415 491 c 0
 415 220 435 0 653 0 c 1
EndSplineSet
Validated: 1
EndChar

StartChar: b
Encoding: 98 98 27
Width: 1272
VWidth: 0
Flags: MW
LayerCount: 3
Fore
SplineSet
102 1505 m 1
 429 1505 l 1
 429 10 l 1
 102 10 l 1
 102 1505 l 1
612 982 m 1
 923 982 1177 762 1177 491 c 0
 1177 220 923 0 612 0 c 1
 830 0 850 220 850 491 c 0
 850 762 830 982 612 982 c 1
EndSplineSet
Validated: 1
EndChar

StartChar: a
Encoding: 97 97 28
Width: 1151
VWidth: 0
Flags: MW
LayerCount: 3
Fore
SplineSet
373 982 m 0
 463 982 536 909 536 819 c 0
 536 729 463 656 373 656 c 0
 283 656 210 729 210 819 c 0
 210 909 283 982 373 982 c 0
528 982 m 1
 1047 982 1047 762 1047 491 c 2
 1047 10 l 1
 720 10 l 1
 720 499 l 2
 720 766 719 982 528 982 c 1
536 0 m 5
 288 0 86 107 86 294 c 4
 86 481 288 589 536 589 c 5
 417 589 394 457 394 294 c 4
 394 131 417 0 536 0 c 5
EndSplineSet
Validated: 1
EndChar

StartChar: bar
Encoding: 124 124 29
Width: 537
VWidth: 0
Flags: HMW
LayerCount: 3
Fore
SplineSet
429 0 m 1
 102 0 l 5
 102 1515 l 5
 429 1515 l 1
 429 0 l 1
EndSplineSet
Validated: 1
EndChar

StartChar: braceright
Encoding: 125 125 30
Width: 933
VWidth: 0
Flags: HMW
LayerCount: 3
Fore
SplineSet
640 1136 m 0
 640 865 660 758 878 758 c 1
 567 758 314 865 314 1136 c 0
 314 1407 294 1516 76 1516 c 1
 387 1516 640 1407 640 1136 c 0
314 377 m 0
 314 648 567 757 878 757 c 1
 660 757 640 648 640 377 c 0
 640 106 387 -1 76 -1 c 1
 294 -1 314 106 314 377 c 0
EndSplineSet
Validated: 1
EndChar

StartChar: asciitilde
Encoding: 126 126 31
Width: 1447
VWidth: 0
Flags: HMW
LayerCount: 3
Fore
SplineSet
825 885 m 4
 965 772 1092 680 1202 680 c 4
 1258 680 1310 705 1356 762 c 5
 1236 613 1066 534 903 534 c 4
 801 534 701 565 620 631 c 4
 480 744 353 835 243 835 c 4
 187 835 134 811 88 754 c 5
 208 903 379 982 542 982 c 4
 645 982 744 951 825 885 c 4
EndSplineSet
Validated: 1
EndChar

StartChar: comma
Encoding: 44 44 32
Width: 519
VWidth: 0
Flags: HMW
LayerCount: 3
Fore
SplineSet
423 164 m 0
 423 103 390 50 340 22 c 2
 97 -118 l 1
 97 164 l 2
 97 254 170 327 260 327 c 0
 350 327 423 254 423 164 c 0
EndSplineSet
Validated: 1
EndChar

StartChar: period
Encoding: 46 46 33
Width: 519
VWidth: 0
Flags: HMW
LayerCount: 3
Fore
SplineSet
260 0 m 0
 170 0 97 74 97 164 c 0
 97 254 170 327 260 327 c 0
 350 327 423 254 423 164 c 0
 423 74 350 0 260 0 c 0
EndSplineSet
Validated: 1
EndChar

StartChar: parenleft
Encoding: 40 40 34
Width: 833
VWidth: 0
Flags: HMW
LayerCount: 3
Fore
SplineSet
781 1515 m 1
 513 1515 413 1202 413 758 c 0
 413 314 513 0 781 0 c 1
 399 0 86 314 86 758 c 0
 86 1202 399 1515 781 1515 c 1
EndSplineSet
Validated: 1
EndChar

StartChar: underscore
Encoding: 95 95 35
Width: 1401
VWidth: 0
Flags: HMW
LayerCount: 3
Fore
SplineSet
1296 -243 m 1
 105 -243 l 1
 105 0 l 1
 1296 0 l 1
 1296 -243 l 1
EndSplineSet
Validated: 1
EndChar

StartChar: bracketright
Encoding: 93 93 37
Width: 626
VWidth: 0
Flags: HMW
LayerCount: 3
Fore
SplineSet
52 1505 m 1
 540 1505 l 1
 540 10 l 1
 52 10 l 1
 212 122 l 1
 212 1393 l 1
 52 1505 l 1
EndSplineSet
Validated: 1
EndChar

StartChar: bracketleft
Encoding: 91 91 38
Width: 625
VWidth: 0
Flags: HMW
LayerCount: 3
Fore
SplineSet
575 1505 m 1
 415 1393 l 1
 415 122 l 1
 575 10 l 1
 88 10 l 1
 88 1505 l 1
 575 1505 l 1
EndSplineSet
Validated: 1
EndChar

StartChar: Z
Encoding: 90 90 39
Width: 1532
VWidth: 0
Flags: HMW
LayerCount: 3
Fore
SplineSet
1520 -14 m 0
 1647 -166 1765 -290 1885 -290 c 0
 1929 -290 1972 -273 2017 -236 c 1
 1901 -334 1761 -383 1628 -383 c 0
 1489 -383 1359 -329 1270 -223 c 0
 1142 -70 1024 54 904 54 c 0
 860 54 816 37 772 0 c 1
 888 98 1027 146 1160 146 c 0
 1299 146 1431 93 1520 -14 c 0
430 1505 m 1
 89 1018 l 1
 89 1505 l 1
 430 1505 l 1
1526 1505 m 1
 465 10 l 1
 89 10 l 1
 1150 1505 l 1
 1526 1505 l 1
EndSplineSet
Validated: 1
EndChar

StartChar: Y
Encoding: 89 89 40
Width: 1553
VWidth: 0
Flags: HMW
LayerCount: 3
Fore
SplineSet
1102 1505 m 1
 1478 1505 l 1
 1291 1179 l 1
 1102 1505 l 1
72 1505 m 1
 448 1505 l 1
 963 607 l 1
 963 10 l 1
 637 10 l 1
 637 521 l 1
 72 1505 l 1
EndSplineSet
Validated: 1
EndChar

StartChar: X
Encoding: 88 88 41
Width: 1628
VWidth: 0
Flags: HMW
LayerCount: 3
Fore
SplineSet
1151 1505 m 1
 1526 1505 l 1
 1340 1178 l 1
 1151 1505 l 1
464 12 m 1
 89 12 l 1
 275 339 l 1
 464 12 l 1
89 1505 m 1
 465 1505 l 1
 1526 12 l 1
 1150 12 l 1
 89 1505 l 1
EndSplineSet
Validated: 1
EndChar

StartChar: W
Encoding: 87 87 42
Width: 2551
VWidth: 0
Flags: HMW
LayerCount: 3
Fore
SplineSet
1039 1505 m 1
 1415 1505 l 1
 1945 390 l 1
 1755 -10 l 1
 1039 1505 l 1
71 1505 m 1
 447 1505 l 1
 977 390 l 1
 787 -10 l 1
 71 1505 l 1
2017 1505 m 1
 2477 1505 l 1
 2247 1018 l 1
 2017 1505 l 1
EndSplineSet
Validated: 1
EndChar

StartChar: V
Encoding: 86 86 43
Width: 1910
VWidth: 0
Flags: MW
LayerCount: 3
Fore
SplineSet
79 1505 m 5
 455 1505 l 5
 1147 315 l 5
 959 -10 l 5
 79 1505 l 5
1358 1505 m 1
 1828 1505 l 1
 1594 1097 l 1
 1358 1505 l 1
EndSplineSet
Validated: 1
EndChar

StartChar: U
Encoding: 85 85 44
Width: 1467
VWidth: 0
Flags: HMW
LayerCount: 3
Fore
SplineSet
785 0 m 1
 1003 0 1022 220 1022 491 c 2
 1022 1505 l 1
 1349 1505 l 1
 1349 491 l 2
 1349 220 1096 0 785 0 c 1
665 0 m 1
 354 0 101 220 101 491 c 2
 101 1505 l 1
 428 1505 l 1
 428 491 l 2
 428 220 447 0 665 0 c 1
EndSplineSet
Validated: 1
EndChar

StartChar: T
Encoding: 84 84 45
Width: 1657
VWidth: 0
Flags: HMW
LayerCount: 3
Fore
SplineSet
314 1505 m 1
 87 1180 l 1
 87 1505 l 1
 314 1505 l 1
1340 1505 m 1
 1567 1505 l 1
 1567 1180 l 1
 1340 1505 l 1
990 10 m 1
 664 10 l 1
 664 1505 l 1
 990 1505 l 1
 990 10 l 1
EndSplineSet
Validated: 1
EndChar

StartChar: S
Encoding: 83 83 46
Width: 1193
VWidth: 0
Flags: HMW
LayerCount: 3
Fore
SplineSet
980 1179 m 0
 919 1179 867 1212 838 1262 c 2
 698 1505 l 1
 980 1505 l 2
 1070 1505 1143 1432 1143 1342 c 0
 1143 1252 1070 1179 980 1179 c 0
213 336 m 0
 274 336 326 303 355 253 c 2
 495 10 l 1
 213 10 l 2
 123 10 50 83 50 173 c 0
 50 263 123 336 213 336 c 0
50 1077 m 1
 64 1253 167 1393 413 1509 c 1
 315 1463 257 1381 257 1283 c 0
 257 1143 437 1025 628 971 c 0
 918 889 1143 661 1143 439 c 1
 1129 273 1026 123 780 7 c 1
 878 53 936 135 936 233 c 0
 936 373 756 491 565 545 c 0
 275 627 50 855 50 1077 c 1
EndSplineSet
Validated: 1
EndChar

StartChar: R
Encoding: 82 82 47
Width: 1491
VWidth: 0
Flags: HMW
LayerCount: 3
Fore
SplineSet
1176 97 m 0
 1176 -174 1196 -393 1414 -393 c 1
 1103 -393 850 -174 850 97 c 0
 850 368 830 589 612 589 c 1
 923 589 1176 368 1176 97 c 0
102 10 m 1
 102 1505 l 1
 429 1505 l 1
 429 10 l 1
 102 10 l 1
612 590 m 1
 830 590 850 781 850 1052 c 0
 850 1323 830 1515 612 1515 c 1
 923 1515 1177 1323 1177 1052 c 0
 1177 781 923 590 612 590 c 1
EndSplineSet
Validated: 1
EndChar

StartChar: Q
Encoding: 81 81 48
Width: 1737
VWidth: 0
Flags: MW
LayerCount: 3
Fore
SplineSet
1127 -182 m 4
 1267 -295 1394 -387 1504 -387 c 4
 1560 -387 1612 -362 1658 -305 c 5
 1538 -454 1368 -533 1205 -533 c 4
 1103 -533 1003 -502 922 -436 c 4
 782 -323 655 -232 545 -232 c 4
 489 -232 436 -256 390 -313 c 5
 510 -164 681 -85 844 -85 c 4
 947 -85 1046 -116 1127 -182 c 4
904 1515 m 1
 1286 1515 1599 1202 1599 758 c 0
 1599 314 1286 0 904 0 c 1
 1172 0 1272 314 1272 758 c 0
 1272 1202 1172 1515 904 1515 c 1
784 1515 m 1
 516 1515 416 1202 416 758 c 0
 416 314 516 0 784 0 c 1
 402 0 89 314 89 758 c 0
 89 1202 402 1515 784 1515 c 1
EndSplineSet
Validated: 1
EndChar

StartChar: P
Encoding: 80 80 49
Width: 1268
VWidth: 0
Flags: HMW
LayerCount: 3
Fore
SplineSet
102 10 m 1
 102 1505 l 1
 429 1505 l 1
 429 10 l 1
 102 10 l 1
612 590 m 1
 830 590 850 781 850 1052 c 0
 850 1323 830 1515 612 1515 c 1
 923 1515 1177 1323 1177 1052 c 0
 1177 781 923 590 612 590 c 1
EndSplineSet
Validated: 1
EndChar

StartChar: O
Encoding: 79 79 50
Width: 1695
VWidth: 0
Flags: MW
LayerCount: 3
Fore
SplineSet
904 1515 m 1
 1286 1515 1599 1202 1599 758 c 0
 1599 314 1286 0 904 0 c 1
 1172 0 1272 314 1272 758 c 0
 1272 1202 1172 1515 904 1515 c 1
784 1515 m 1
 516 1515 416 1202 416 758 c 0
 416 314 516 0 784 0 c 1
 402 0 89 314 89 758 c 0
 89 1202 402 1515 784 1515 c 1
EndSplineSet
Validated: 1
EndChar

StartChar: N
Encoding: 78 78 51
Width: 1623
VWidth: 0
Flags: HMW
LayerCount: 3
Fore
SplineSet
1189 1505 m 1
 1530 1505 l 1
 1530 1018 l 1
 1189 1505 l 1
434 10 m 1
 93 10 l 1
 93 497 l 1
 434 10 l 1
93 1505 m 1
 469 1505 l 1
 1530 10 l 1
 1154 10 l 1
 93 1505 l 1
EndSplineSet
Validated: 1
EndChar

StartChar: M
Encoding: 77 77 52
Width: 1944
VWidth: 0
Flags: HMW
LayerCount: 3
Fore
SplineSet
1466 1241 m 1
 1654 1505 l 1
 1842 1505 l 1
 1842 10 l 1
 1466 10 l 1
 1466 1241 l 1
441 10 m 1
 100 10 l 1
 100 497 l 1
 441 10 l 1
100 1505 m 1
 476 1505 l 1
 1063 678 l 1
 875 414 l 1
 100 1505 l 1
EndSplineSet
Validated: 1
EndChar

StartChar: L
Encoding: 76 76 53
Width: 1340
VWidth: 0
Flags: MW
LayerCount: 3
Fore
SplineSet
898 10 m 1
 1239 497 l 1
 1239 10 l 1
 898 10 l 1
429 10 m 1
 102 10 l 1
 102 1505 l 1
 429 1505 l 1
 429 10 l 1
EndSplineSet
Validated: 1
EndChar

StartChar: K
Encoding: 75 75 54
Width: 1180
VWidth: 0
Flags: HMW
LayerCount: 3
Fore
SplineSet
1342 10 m 1
 965 10 l 1
 430 772 l 1
 669 964 l 1
 1342 10 l 1
980 1214 m 1
 980 1505 l 1
 1342 1505 l 1
 980 1214 l 1
429 10 m 1
 102 10 l 1
 102 1505 l 1
 429 1505 l 1
 429 10 l 1
EndSplineSet
Validated: 1
EndChar

StartChar: J
Encoding: 74 74 55
Width: 1072
VWidth: 0
Flags: MW
LayerCount: 3
Fore
SplineSet
248 0 m 0
 158 0 85 74 85 164 c 0
 85 254 158 327 248 327 c 0
 338 327 411 254 411 164 c 0
 411 74 338 0 248 0 c 0
403 0 m 1
 621 0 640 220 640 491 c 2
 640 1505 l 1
 967 1505 l 1
 967 491 l 2
 967 220 714 0 403 0 c 1
EndSplineSet
Validated: 1
EndChar

StartChar: I
Encoding: 73 73 56
Width: 537
VWidth: 0
Flags: MW
LayerCount: 3
Fore
SplineSet
429 10 m 5
 102 10 l 5
 102 1505 l 5
 429 1505 l 5
 429 10 l 5
EndSplineSet
Validated: 1
EndChar

StartChar: H
Encoding: 72 72 57
Width: 1616
VWidth: 0
Flags: HMW
LayerCount: 3
Fore
SplineSet
1082 784 m 1
 1082 1505 l 1
 1409 1505 l 1
 1409 10 l 1
 1082 10 l 1
 1082 672 l 1
 922 784 l 1
 1082 784 l 1
208 1505 m 1
 535 1505 l 1
 535 10 l 1
 208 10 l 1
 208 1505 l 1
EndSplineSet
Validated: 1
EndChar

StartChar: G
Encoding: 71 71 58
Width: 1339
VWidth: 0
Flags: HMW
LayerCount: 3
Fore
SplineSet
961 1507 m 1
 1302 1507 l 1
 1302 1020 l 1
 961 1507 l 1
976 -265 m 2
 976 357 l 1
 1302 357 l 1
 1302 -265 l 2
 1302 -368 1205 -533 1054 -533 c 0
 976 -533 881 -511 780 -467 c 1
 780 -467 806 -475 835 -475 c 0
 892 -475 976 -366 976 -265 c 2
728 1515 m 1
 460 1515 360 1202 360 758 c 0
 360 314 460 0 728 0 c 1
 346 0 33 314 33 758 c 0
 33 1202 346 1515 728 1515 c 1
EndSplineSet
Validated: 1
EndChar

StartChar: F
Encoding: 70 70 59
Width: 1437
VWidth: 0
Flags: MW
LayerCount: 3
Fore
SplineSet
1007 1505 m 1
 1348 1505 l 1
 1348 1018 l 1
 1007 1505 l 1
1012 992 m 1
 1012 617 l 1
 685 803 l 1
 1012 992 l 1
432 12 m 1
 105 12 l 1
 105 1505 l 1
 432 1505 l 1
 432 12 l 1
EndSplineSet
Validated: 1
EndChar

StartChar: E
Encoding: 69 69 60
Width: 1440
VWidth: 0
Flags: MW
LayerCount: 3
Fore
SplineSet
1007 10 m 1
 1348 497 l 1
 1348 10 l 1
 1007 10 l 1
1007 1505 m 1
 1348 1505 l 1
 1348 1018 l 1
 1007 1505 l 1
1348 10 m 1025
1012 992 m 1
 1012 617 l 1
 685 803 l 1
 1012 992 l 1
432 10 m 5
 105 10 l 5
 105 1505 l 5
 432 1505 l 5
 432 10 l 5
EndSplineSet
Validated: 1
EndChar

StartChar: quotedbl
Encoding: 34 34 61
Width: 950
VWidth: 0
Flags: HMW
LayerCount: 3
Fore
SplineSet
950 1505 m 1
 609 1018 l 1
 609 1505 l 1
 950 1505 l 1
509 1505 m 1
 168 1018 l 1
 168 1505 l 1
 509 1505 l 1
EndSplineSet
Validated: 1
EndChar

StartChar: percent
Encoding: 37 37 62
Width: 1209
VWidth: 0
Flags: HMW
LayerCount: 3
Fore
SplineSet
930 0 m 1
 806 0 719 88 719 196 c 0
 719 304 806 392 930 392 c 1
 843 392 840 304 840 196 c 0
 840 88 843 0 930 0 c 1
945 0 m 1
 1032 0 1035 88 1035 196 c 0
 1035 304 1032 392 945 392 c 1
 1069 392 1156 304 1156 196 c 0
 1156 88 1069 0 945 0 c 1
280 1515 m 1
 404 1515 491 1427 491 1319 c 0
 491 1211 404 1123 280 1123 c 1
 367 1123 370 1211 370 1319 c 0
 370 1427 367 1515 280 1515 c 1
265 1515 m 1
 178 1515 175 1427 175 1319 c 0
 175 1211 178 1123 265 1123 c 1
 141 1123 54 1211 54 1319 c 0
 54 1427 141 1515 265 1515 c 1
54 10 m 1
 815 1505 l 1
 1156 1505 l 1
 395 10 l 1
 54 10 l 1
EndSplineSet
Validated: 1
EndChar

StartChar: quotesingle
Encoding: 39 39 63
Width: 509
VWidth: 0
Flags: HMW
LayerCount: 3
Fore
SplineSet
437 1505 m 5
 96 1018 l 5
 96 1505 l 5
 437 1505 l 5
EndSplineSet
Validated: 1
EndChar

StartChar: parenright
Encoding: 41 41 64
Width: 833
VWidth: 0
Flags: HMW
LayerCount: 3
Fore
SplineSet
51 1515 m 1
 433 1515 746 1202 746 758 c 0
 746 314 433 0 51 0 c 1
 319 0 419 314 419 758 c 0
 419 1202 319 1515 51 1515 c 1
EndSplineSet
Validated: 1
EndChar

StartChar: asterisk
Encoding: 42 42 65
Width: 1519
VWidth: 0
Flags: HMW
LayerCount: 3
Fore
SplineSet
498 704 m 1
 701 460 l 1
 0 460 l 1
 498 704 l 1
932 507 m 1
 1107 6 l 1
 530 721 l 1
 759 827 l 1
 249 1505 l 1
 922 1505 l 1
 1162 689 l 1
 932 507 l 1
1332 886 m 1
 1318 749 l 1
 1185 707 l 1
 1126 902 l 1
 1332 886 l 1
1519 793 m 1
 1351 774 l 1
 1361 863 l 1
 1519 793 l 1
1112 59 m 1
 1292 10 l 1
 1129 10 l 1
 1112 59 l 1
982 10 m 1
 1042 51 l 1
 1078 10 l 1
 982 10 l 1
EndSplineSet
Validated: 1
EndChar

StartChar: hyphen
Encoding: 45 45 67
Width: 1447
VWidth: 0
Flags: HMW
LayerCount: 3
Fore
SplineSet
825 885 m 0
 965 772 1092 680 1202 680 c 0
 1258 680 1310 705 1356 762 c 1
 1236 613 1066 534 903 534 c 0
 801 534 701 565 620 631 c 0
 480 744 353 835 243 835 c 0
 187 835 134 811 88 754 c 1
 208 903 379 982 542 982 c 0
 645 982 744 951 825 885 c 0
EndSplineSet
Validated: 1
EndChar

StartChar: slash
Encoding: 47 47 68
Width: 1189
VWidth: 0
Flags: HMW
LayerCount: 3
Fore
SplineSet
43 10 m 1
 804 1505 l 1
 1145 1505 l 1
 384 10 l 1
 43 10 l 1
EndSplineSet
Validated: 1
EndChar

StartChar: zero
Encoding: 48 48 69
Width: 1605
VWidth: 0
Flags: HMW
LayerCount: 3
Fore
SplineSet
816 594 m 4
 726 594 653 668 653 758 c 4
 653 848 726 921 816 921 c 4
 906 921 979 848 979 758 c 4
 979 668 906 594 816 594 c 4
876 1515 m 5
 1258 1515 1541 1202 1541 758 c 4
 1541 314 1258 0 876 0 c 5
 1144 0 1214 314 1214 758 c 4
 1214 1202 1144 1515 876 1515 c 5
756 1515 m 5
 488 1515 418 1202 418 758 c 4
 418 314 488 0 756 0 c 5
 374 0 91 314 91 758 c 4
 91 1202 374 1515 756 1515 c 5
EndSplineSet
Validated: 1
EndChar

StartChar: one
Encoding: 49 49 70
Width: 585
VWidth: 0
Flags: HMW
LayerCount: 3
Fore
SplineSet
448 1515 m 1
 448 10 l 1
 121 10 l 1
 121 1327 l 1
 448 1515 l 1
EndSplineSet
Validated: 1
EndChar

StartChar: two
Encoding: 50 50 71
Width: 1187
VWidth: 0
Flags: HMW
LayerCount: 3
Back
SplineSet
1869.61035156 1515 m 0
 1779.61035156 1515 1706.61035156 1441 1706.61035156 1351 c 0
 1706.61035156 1261 1779.61035156 1188 1869.61035156 1188 c 0
 1959.61035156 1188 2032.61035156 1261 2032.61035156 1351 c 0
 2032.61035156 1441 1959.61035156 1515 1869.61035156 1515 c 0
1893.61035156 266 m 1
 2275.61035156 266 2588.61035156 580 2588.61035156 1024 c 1
 2588.61035156 1024 l 1
 2588.61035156 1295 2335.61035156 1515 2024.61035156 1515 c 1
 2242.61035156 1515 2261.61035156 1295 2261.61035156 1024 c 0
 2261.61035156 580 2161.61035156 266 1893.61035156 266 c 1
EndSplineSet
Fore
SplineSet
44 10 m 1
 445 307 l 1
 1081 307 l 1
 1081 10 l 1
 44 10 l 1
217 1158 m 0
 127 1158 54 1232 54 1322 c 0
 54 1412 127 1485 217 1485 c 0
 307 1485 380 1412 380 1322 c 0
 380 1232 307 1158 217 1158 c 0
625 500 m 1
 753 620 783 781 783 1052 c 0
 783 1323 745 1515 527 1515 c 1
 838 1515 1110 1323 1110 1052 c 0
 1110 781 846 620 625 500 c 1
EndSplineSet
Validated: 1
EndChar

StartChar: three
Encoding: 51 51 72
Width: 1202
VWidth: 0
Flags: HMW
LayerCount: 3
Back
SplineSet
830.25 1515 m 4
 740.25 1515 667.25 1441 667.25 1351 c 4
 667.25 1261 740.25 1188 830.25 1188 c 4
 920.25 1188 993.25 1261 993.25 1351 c 4
 993.25 1441 920.25 1515 830.25 1515 c 4
830.25 327 m 4
 740.25 327 667.25 253 667.25 163 c 4
 667.25 73 740.25 0 830.25 0 c 4
 920.25 0 993.25 73 993.25 163 c 4
 993.25 253 920.25 327 830.25 327 c 4
1180.25 926 m 5
 1299.25 926 1323.25 1057 1323.25 1220 c 4
 1323.25 1383 1201.25 1515 1082.25 1515 c 5
 1330.25 1515 1631.25 1407 1631.25 1220 c 4
 1631.25 1033 1428.25 926 1180.25 926 c 5
1180.25 925 m 5
 1491.25 925 1745.25 734 1745.25 463 c 4
 1745.25 192 1393.25 0 1082.25 0 c 5
 1300.25 0 1418.25 192 1418.25 463 c 4
 1418.25 734 1398.25 925 1180.25 925 c 5
EndSplineSet
Fore
SplineSet
777 1262 m 1
 661 1176 l 1
 661 1262 l 1
 68 1262 l 1
 68 1505 l 1
 1105 1505 l 1
 777 1262 l 1
241 357 m 0
 331 357 404 283 404 193 c 0
 404 103 331 30 241 30 c 0
 151 30 78 103 78 193 c 0
 78 283 151 357 241 357 c 0
807 463 m 0
 807 677 690 830 513 830 c 0
 466 830 415 819 361 796 c 1
 447 876 557 912 666 912 c 0
 900 912 1134 743 1134 463 c 0
 1134 192 862 0 551 0 c 1
 769 0 807 192 807 463 c 0
EndSplineSet
Validated: 1
Layer: 2
SplineSet
1135.25 1505 m 5
 98.25 1505 l 5
 98.25 1208 l 5
 734.25 1208 l 5
 1135.25 1505 l 5
271.25 357 m 4
 181.25 357 108.25 283 108.25 193 c 4
 108.25 103 181.25 30 271.25 30 c 4
 361.25 30 434.25 103 434.25 193 c 4
 434.25 283 361.25 357 271.25 357 c 4
837.25 463 m 4
 837.25 192 799.25 0 581.25 0 c 5
 892.25 0 1164.25 192 1164.25 463 c 4
 1164.25 734 782.25 1026 511.25 866 c 5
 669.25 926 837.25 734 837.25 463 c 4
EndSplineSet
EndChar

StartChar: four
Encoding: 52 52 73
Width: 1188
VWidth: 0
Flags: HMW
LayerCount: 3
Back
SplineSet
-56.5 1489 m 1
 462.5 1489 462.5 1269 462.5 998 c 2
 462.5 517 l 1
 135.5 517 l 1
 135.5 1006 l 2
 135.5 1273 134.5 1489 -56.5 1489 c 1
1122.5 10 m 1
 795.5 10 l 1
 795.5 1505 l 1
 1122.5 1505 l 1
 1122.5 10 l 1
EndSplineSet
Fore
SplineSet
394 858 m 1
 394 517 l 1
 53 517 l 1
 394 858 l 1
1054 1515 m 1
 1054 10 l 1
 727 10 l 1
 727 1190 l 1
 1054 1515 l 1
EndSplineSet
Validated: 1
EndChar

StartChar: five
Encoding: 53 53 74
Width: 1186
VWidth: 0
Flags: HMW
LayerCount: 3
Back
SplineSet
833.5 463 m 4
 833.5 192 795.5 0 577.5 0 c 5
 888.5 0 1160.5 192 1160.5 463 c 4
 1160.5 874 658.5 1046 387.5 796 c 5
 645.5 906 833.5 734 833.5 463 c 4
EndSplineSet
Fore
SplineSet
306 1208 m 1
 438 1505 l 1
 1074 1505 l 1
 1074 1208 l 1
 306 1208 l 1
210 357 m 0
 300 357 373 283 373 193 c 0
 373 103 300 30 210 30 c 0
 120 30 47 103 47 193 c 0
 47 283 120 357 210 357 c 0
776 463 m 0
 776 698 545 858 316 858 c 0
 280 858 245 854 210 846 c 1
 287 903 392 929 503 929 c 0
 784 929 1103 758 1103 463 c 0
 1103 192 831 0 520 0 c 1
 738 0 776 192 776 463 c 0
EndSplineSet
Validated: 1
EndChar

StartChar: six
Encoding: 54 54 75
Width: 1427
VWidth: 0
Flags: HMW
LayerCount: 3
Fore
SplineSet
894 1515 m 1
 626 1515 426 1202 426 758 c 0
 426 414 426 0 694 0 c 1
 333 0 97 254 97 681 c 0
 97 706 97 732 99 758 c 0
 127 1201 512 1515 894 1515 c 1
794 982 m 1
 1105 982 1358 762 1358 491 c 0
 1358 220 1105 0 794 0 c 1
 1012 0 1032 220 1032 491 c 0
 1032 762 1012 982 794 982 c 1
EndSplineSet
Validated: 1
EndChar

StartChar: seven
Encoding: 55 55 76
Width: 1218
VWidth: 0
Flags: HMW
LayerCount: 3
Back
SplineSet
375.650390625 10 m 5
 716.650390625 680 l 5
 716.650390625 10 l 5
 375.650390625 10 l 5
1136.65039062 1505 m 5
 984.650390625 1208 l 5
 38.650390625 1208 l 5
 38.650390625 1505 l 5
 1136.65039062 1505 l 5
EndSplineSet
Fore
SplineSet
324 1505 m 1
 76 1018 l 1
 76 1505 l 1
 324 1505 l 1
76 10 m 1
 837 1505 l 1
 1178 1505 l 1
 417 10 l 1
 76 10 l 1
EndSplineSet
Validated: 1
EndChar

StartChar: eight
Encoding: 56 56 77
Width: 1310
VWidth: 0
Flags: HMW
LayerCount: 3
Fore
SplineSet
702 926 m 5
 821 926 825 1077 825 1220 c 4
 825 1363 821 1515 702 1515 c 5
 950 1515 1133 1407 1133 1220 c 4
 1133 1033 950 926 702 926 c 5
702 925 m 5
 1013 925 1247 734 1247 463 c 4
 1247 192 1013 0 702 0 c 5
 920 0 920 222 920 463 c 4
 920 704 920 925 702 925 c 5
632 926 m 5
 384 926 201 1033 201 1220 c 4
 201 1407 384 1515 632 1515 c 5
 513 1515 509 1363 509 1220 c 4
 509 1077 513 926 632 926 c 5
632 925 m 5
 414 925 414 704 414 463 c 4
 414 222 414 0 632 0 c 5
 321 0 87 192 87 463 c 4
 87 734 321 925 632 925 c 5
EndSplineSet
Validated: 1
EndChar

StartChar: nine
Encoding: 57 57 78
Width: 1399
VWidth: 0
Flags: HMW
LayerCount: 3
Fore
SplineSet
531 0 m 1
 799 0 999 313 999 757 c 0
 999 1101 999 1515 731 1515 c 1
 1092 1515 1328 1261 1328 834 c 0
 1328 809 1328 783 1326 757 c 0
 1298 314 913 0 531 0 c 1
631 533 m 1
 320 533 67 753 67 1024 c 0
 67 1295 320 1515 631 1515 c 1
 413 1515 393 1295 393 1024 c 0
 393 753 413 533 631 533 c 1
EndSplineSet
Validated: 1
EndChar

StartChar: colon
Encoding: 58 58 79
Width: 519
VWidth: 0
Flags: HMW
LayerCount: 3
Fore
SplineSet
260 0 m 0
 170 0 97 74 97 164 c 0
 97 254 170 327 260 327 c 0
 350 327 423 254 423 164 c 0
 423 74 350 0 260 0 c 0
260 655 m 0
 170 655 97 729 97 819 c 0
 97 909 170 982 260 982 c 0
 350 982 423 909 423 819 c 0
 423 729 350 655 260 655 c 0
EndSplineSet
Validated: 1
EndChar

StartChar: semicolon
Encoding: 59 59 80
Width: 519
VWidth: 0
Flags: HMW
LayerCount: 3
Fore
SplineSet
260 655 m 4
 170 655 97 729 97 819 c 4
 97 909 170 982 260 982 c 4
 350 982 423 909 423 819 c 4
 423 729 350 655 260 655 c 4
423 164 m 4
 423 103 390 50 340 22 c 6
 97 -118 l 5
 97 164 l 6
 97 254 170 327 260 327 c 4
 350 327 423 254 423 164 c 4
EndSplineSet
Validated: 1
EndChar

StartChar: question
Encoding: 63 63 81
Width: 1156
VWidth: 0
Flags: HMW
LayerCount: 3
Fore
SplineSet
621 0 m 0
 531 0 458 74 458 164 c 0
 458 254 531 327 621 327 c 0
 711 327 784 254 784 164 c 0
 784 74 711 0 621 0 c 0
213 1158 m 0
 123 1158 50 1232 50 1322 c 0
 50 1412 123 1485 213 1485 c 0
 303 1485 376 1412 376 1322 c 0
 376 1232 303 1158 213 1158 c 0
621 500 m 1
 749 620 779 781 779 1052 c 0
 779 1323 741 1515 523 1515 c 1
 834 1515 1106 1323 1106 1052 c 0
 1106 781 842 620 621 500 c 1
EndSplineSet
Validated: 1
EndChar

StartChar: at
Encoding: 64 64 82
Width: 1640
VWidth: 0
Flags: HMW
LayerCount: 3
Fore
SplineSet
798 1248 m 1
 530 1248 430 935 430 491 c 0
 430 47 530 -267 798 -267 c 1
 416 -267 103 47 103 491 c 0
 103 935 416 1248 798 1248 c 1
1001 1248 m 1
 1520 1248 1520 1018 1520 747 c 2
 1520 266 l 1
 1193 266 l 1
 1193 755 l 2
 1193 1022 1192 1248 1001 1248 c 1
1009 256 m 1
 761 256 559 363 559 550 c 0
 559 737 761 845 1009 845 c 1
 890 845 867 713 867 550 c 0
 867 387 890 256 1009 256 c 1
EndSplineSet
Validated: 1
EndChar

StartChar: A
Encoding: 65 65 83
Width: 1892
VWidth: 0
Flags: HMW
LayerCount: 3
Fore
SplineSet
1822 10 m 1
 1446 10 l 1
 754 1199 l 1
 942 1525 l 1
 1822 10 l 1
544 10 m 1
 74 10 l 1
 308 418 l 1
 544 10 l 1
EndSplineSet
Validated: 1
EndChar

StartChar: B
Encoding: 66 66 84
Width: 1270
VWidth: 0
Flags: MW
LayerCount: 3
Fore
SplineSet
612 926 m 1
 731 926 755 1057 755 1220 c 0
 755 1383 731 1515 612 1515 c 1
 860 1515 1063 1407 1063 1220 c 0
 1063 1033 860 926 612 926 c 1
102 1505 m 1
 429 1505 l 1
 429 10 l 1
 102 10 l 1
 102 1505 l 1
612 925 m 1
 923 925 1177 734 1177 463 c 0
 1177 192 923 0 612 0 c 1
 830 0 850 192 850 463 c 0
 850 734 830 925 612 925 c 1
EndSplineSet
Validated: 1
EndChar

StartChar: C
Encoding: 67 67 85
Width: 1342
VWidth: 0
Flags: HMW
LayerCount: 3
Fore
SplineSet
962 1507 m 1
 1303 1507 l 1
 1303 1020 l 1
 962 1507 l 1
729 0 m 1
 347 0 34 313 34 757 c 0
 34 1201 347 1515 729 1515 c 1
 461 1515 361 1201 361 757 c 0
 361 313 461 0 729 0 c 1
EndSplineSet
Validated: 1
EndChar

StartChar: D
Encoding: 68 68 86
Width: 1518
VWidth: 0
Flags: MW
LayerCount: 3
Fore
SplineSet
102 1505 m 1
 429 1505 l 1
 429 10 l 1
 102 10 l 1
 102 1505 l 1
727 1515 m 1
 1109 1515 1422 1202 1422 758 c 0
 1422 314 1109 0 727 0 c 1
 995 0 1095 314 1095 758 c 0
 1095 1202 995 1515 727 1515 c 1
EndSplineSet
Validated: 1
EndChar

StartChar: sterling
Encoding: 163 163 87
Width: 1391
VWidth: 0
Flags: HMW
LayerCount: 3
Fore
SplineSet
528 977 m 1
 755 977 l 1
 755 652 l 1
 528 977 l 1
798 1515 m 0
 888 1515 961 1441 961 1351 c 0
 961 1261 888 1188 798 1188 c 0
 708 1188 635 1261 635 1351 c 0
 635 1441 708 1515 798 1515 c 0
79 771 m 1
 79 1024 l 2
 79 1295 332 1515 643 1515 c 1
 425 1515 406 1295 406 1024 c 2
 406 784 l 1
 406 397 l 1
 79 397 l 1
 79 771 l 1
816 205 m 0
 956 92 1083 0 1193 0 c 0
 1249 0 1301 25 1347 82 c 1
 1227 -67 1057 -146 894 -146 c 0
 792 -146 692 -115 611 -49 c 0
 471 64 344 155 234 155 c 0
 178 155 125 131 79 74 c 1
 199 223 370 302 533 302 c 0
 636 302 735 271 816 205 c 0
EndSplineSet
Validated: 1
EndChar

StartChar: AE
Encoding: 198 198 95
Width: 2253
VWidth: 0
Flags: HMW
LayerCount: 3
Fore
SplineSet
1823 10 m 5
 2164 497 l 5
 2164 10 l 5
 1823 10 l 5
1823 1505 m 5
 2164 1505 l 5
 2164 1018 l 5
 1823 1505 l 5
1828 992 m 5
 1828 621 l 5
 1501 807 l 5
 1828 992 l 5
61 10 m 5
 402 497 l 5
 402 10 l 5
 61 10 l 5
921 1241 m 5
 1109 1505 l 5
 1248 1505 l 5
 1248 10 l 5
 921 10 l 5
 921 672 l 5
 761 784 l 5
 921 784 l 5
 921 1241 l 5
EndSplineSet
Validated: 1
EndChar

StartChar: Eth
Encoding: 208 208 104
Width: 1510
VWidth: 0
Flags: HMW
LayerCount: 3
Fore
SplineSet
719 1515 m 1
 1101 1515 1414 1202 1414 758 c 0
 1414 314 1101 0 719 0 c 1
 987 0 1087 314 1087 758 c 0
 1087 1202 987 1515 719 1515 c 1
94 672 m 1
 -66 784 l 1
 94 784 l 1
 94 1505 l 1
 421 1505 l 1
 421 10 l 1
 94 10 l 1
 94 672 l 1
EndSplineSet
Validated: 1
EndChar

StartChar: Thorn
Encoding: 222 222 116
Width: 1272
VWidth: 0
Flags: HMW
LayerCount: 3
Fore
SplineSet
102 1505 m 1
 429 1505 l 1
 429 10 l 1
 102 10 l 1
 102 1505 l 1
612 1244 m 1
 923 1244 1177 1024 1177 753 c 0
 1177 482 923 262 612 262 c 1
 830 262 850 482 850 753 c 0
 850 1024 830 1244 612 1244 c 1
EndSplineSet
Validated: 1
EndChar

StartChar: germandbls
Encoding: 223 223 117
Width: 1409
VWidth: 0
Flags: HMW
LayerCount: 3
Fore
SplineSet
762 926 m 1
 881 926 905 1057 905 1220 c 0
 905 1383 881 1515 762 1515 c 1
 1010 1515 1213 1407 1213 1220 c 0
 1213 1033 1010 926 762 926 c 1
762 925 m 1
 1073 925 1327 734 1327 463 c 0
 1327 192 1073 0 762 0 c 1
 980 0 1000 192 1000 463 c 0
 1000 734 980 925 762 925 c 1
662 1515 m 1
 444 1515 425 1295 425 1024 c 2
 425 10 l 1
 98 10 l 1
 98 1024 l 2
 98 1295 351 1515 662 1515 c 1
EndSplineSet
Validated: 1
EndChar

StartChar: ae
Encoding: 230 230 123
Width: 1863
VWidth: 0
Flags: HMWO
LayerCount: 3
Fore
SplineSet
337 982 m 0
 427 982 500 909 500 819 c 0
 500 729 427 656 337 656 c 0
 247 656 174 729 174 819 c 0
 174 909 247 982 337 982 c 0
500 0 m 1
 252 0 50 107 50 294 c 0
 50 481 252 589 500 589 c 1
 381 589 358 457 358 294 c 0
 358 131 381 0 500 0 c 1
1249 982 m 1
 1560 982 1813 762 1813 491 c 1
 1487 491 l 1
 1487 762 1467 982 1249 982 c 1
684 499 m 2
 684 766 683 982 492 982 c 1
 706 982 832 944 906 881 c 1
 1001 944 1120 982 1248 982 c 1
 1030 982 1011 762 1011 491 c 0
 1011 220 1030 0 1248 0 c 1
 937 0 684 220 684 491 c 2
 684 499 l 2
EndSplineSet
Validated: 1
EndChar

StartChar: eth
Encoding: 240 240 132
Width: 1403
VWidth: 0
Flags: HMW
LayerCount: 3
Fore
SplineSet
637 1515 m 1
 1019 1515 1332 1202 1332 758 c 0
 1332 314 1019 0 637 0 c 1
 905 0 1005 314 1005 758 c 0
 1005 1202 905 1515 637 1515 c 1
636 982 m 1
 418 982 398 762 398 491 c 0
 398 220 418 0 636 0 c 1
 325 0 72 220 72 491 c 0
 72 762 325 982 636 982 c 1
EndSplineSet
Validated: 1
EndChar

StartChar: thorn
Encoding: 254 254 142
Width: 1272
VWidth: 0
Flags: HMW
LayerCount: 3
Fore
SplineSet
102 1505 m 1
 429 1505 l 1
 429 -523 l 1
 102 -523 l 1
 102 1505 l 1
612 982 m 1
 923 982 1177 762 1177 491 c 0
 1177 220 923 0 612 0 c 1
 830 0 850 220 850 491 c 0
 850 762 830 982 612 982 c 1
EndSplineSet
Validated: 1
EndChar

StartChar: uniFB01
Encoding: 64257 64257 144
Width: 1076
VWidth: 0
Flags: MW
LayerCount: 3
Fore
SplineSet
818 1515 m 0
 908 1515 981 1441 981 1351 c 0
 981 1261 908 1188 818 1188 c 0
 728 1188 655 1261 655 1351 c 0
 655 1441 728 1515 818 1515 c 0
663 1515 m 1
 445 1515 426 1295 426 1024 c 2
 426 10 l 1
 99 10 l 1
 99 1024 l 2
 99 1295 352 1515 663 1515 c 1
655 824 m 1
 548 977 l 1
 981 977 l 1
 981 10 l 1
 655 10 l 1
 655 824 l 1
EndSplineSet
Validated: 1
LCarets2: 1 0
Ligature2: "'liga' Standard Ligatures lookup 0-1" f i
EndChar

StartChar: uniFB00
Encoding: 64256 64256 145
Width: 1555
VWidth: 0
Flags: MW
LayerCount: 3
Fore
SplineSet
1104 977 m 1
 1331 977 l 1
 1331 652 l 1
 1104 977 l 1
663 1515 m 1
 445 1515 426 1295 426 1024 c 2
 426 10 l 1
 99 10 l 1
 99 1024 l 2
 99 1295 352 1515 663 1515 c 1
655 824 m 1
 548 977 l 1
 655 977 l 1
 655 1024 l 2
 655 1295 908 1515 1219 1515 c 1
 1001 1515 981 1295 981 1024 c 2
 981 10 l 1
 655 10 l 1
 655 824 l 1
1373 1515 m 0
 1463 1515 1537 1441 1537 1351 c 0
 1537 1261 1463 1188 1373 1188 c 0
 1283 1188 1210 1261 1210 1351 c 0
 1210 1441 1283 1515 1373 1515 c 0
EndSplineSet
Validated: 1
LCarets2: 1 0
Ligature2: "'liga' Standard Ligatures lookup 0-1" f f
EndChar

StartChar: uniFB03
Encoding: 64259 64259 146
Width: 1632
VWidth: 0
Flags: MW
LayerCount: 3
Fore
SplineSet
663 1515 m 1
 445 1515 426 1295 426 1024 c 2
 426 10 l 1
 99 10 l 1
 99 1024 l 2
 99 1295 352 1515 663 1515 c 1
655 824 m 1
 548 977 l 1
 655 977 l 1
 655 1024 l 2
 655 1295 908 1515 1219 1515 c 1
 1001 1515 981 1295 981 1024 c 2
 981 10 l 1
 655 10 l 1
 655 824 l 1
1373 1515 m 0
 1463 1515 1537 1441 1537 1351 c 0
 1537 1261 1463 1188 1373 1188 c 0
 1283 1188 1210 1261 1210 1351 c 0
 1210 1441 1283 1515 1373 1515 c 0
1210 824 m 1
 1104 977 l 1
 1537 977 l 1
 1537 10 l 1
 1210 10 l 1
 1210 824 l 1
EndSplineSet
Validated: 1
LCarets2: 2 0 0
Ligature2: "'liga' Standard Ligatures lookup 0-1" f f i
EndChar

StartChar: oe
Encoding: 339 339 147
Width: 2054
VWidth: 0
Flags: HMW
LayerCount: 3
Fore
SplineSet
1400 982 m 1
 1711 982 1964 762 1964 491 c 1
 1638 491 l 1
 1638 762 1618 982 1400 982 c 1
1399 982 m 1
 1181 982 1161 762 1161 491 c 0
 1161 220 1181 0 1399 0 c 1
 1241 0 1098 57 995 149 c 1
 902 57 768 0 610 0 c 1
 828 0 835 220 835 491 c 0
 835 762 828 982 610 982 c 1
 768 982 902 925 995 833 c 1
 1098 925 1241 982 1399 982 c 1
573 982 m 1
 355 982 347 762 347 491 c 0
 347 220 355 0 573 0 c 1
 262 0 46 220 46 491 c 0
 46 762 262 982 573 982 c 1
EndSplineSet
Validated: 1
EndChar

StartChar: OE
Encoding: 338 338 148
Width: 2126
VWidth: 0
Flags: HMW
LayerCount: 3
Fore
SplineSet
1724 0 m 1
 2065 487 l 1
 2065 0 l 1
 1724 0 l 1
1724 1495 m 1
 2065 1495 l 1
 2065 1008 l 1
 1724 1495 l 1
1729 982 m 1
 1729 607 l 1
 1402 793 l 1
 1729 982 l 1
1243 1495 m 1
 1243 0 l 1
 916 0 l 1
 916 1495 l 1
 1243 1495 l 1
746 1515 m 1
 478 1515 378 1202 378 758 c 0
 378 314 478 0 746 0 c 1
 364 0 51 314 51 758 c 0
 51 1202 364 1515 746 1515 c 1
EndSplineSet
Validated: 1
EndChar

StartChar: uniFB04
Encoding: 64260 64260 149
Width: 1632
VWidth: 0
Flags: HMW
LayerCount: 3
Fore
SplineSet
663 1515 m 1
 445 1515 426 1295 426 1024 c 2
 426 10 l 1
 99 10 l 1
 99 1024 l 2
 99 1295 352 1515 663 1515 c 1
655 824 m 1
 548 977 l 1
 655 977 l 1
 655 1024 l 2
 655 1295 908 1515 1219 1515 c 1
 1001 1515 981 1295 981 1024 c 2
 981 10 l 1
 655 10 l 1
 655 824 l 1
1373 1515 m 0
 1463 1515 1537 1441 1537 1351 c 0
 1537 1261 1463 1188 1373 1188 c 0
 1283 1188 1210 1261 1210 1351 c 0
 1210 1441 1283 1515 1373 1515 c 0
1104 977 m 1
 1537 977 l 1
 1537 -265 l 1
 1537 -448 1440 -533 1289 -533 c 0
 1211 -533 1119 -511 1018 -467 c 1
 1018 -467 1040 -475 1069 -475 c 0
 1126 -475 1210 -445 1210 -265 c 1
 1210 824 l 1
 1104 977 l 1
EndSplineSet
Validated: 1
LCarets2: 2 0 0
Ligature2: "'liga' Standard Ligatures lookup 0-1" f f j
EndChar

StartChar: uniFB02
Encoding: 64258 64258 150
Width: 1076
VWidth: 0
Flags: HMW
LayerCount: 3
Fore
SplineSet
663 1515 m 1
 445 1515 426 1295 426 1024 c 2
 426 10 l 1
 99 10 l 1
 99 1024 l 2
 99 1295 352 1515 663 1515 c 1
818 1515 m 0
 908 1515 982 1441 982 1351 c 0
 982 1261 908 1188 818 1188 c 0
 728 1188 655 1261 655 1351 c 0
 655 1441 728 1515 818 1515 c 0
549 977 m 1
 982 977 l 1
 982 -265 l 1
 982 -448 885 -533 734 -533 c 0
 656 -533 564 -511 463 -467 c 1
 463 -467 485 -475 514 -475 c 0
 571 -475 655 -445 655 -265 c 1
 655 824 l 1
 549 977 l 1
EndSplineSet
Validated: 1
LCarets2: 1 0
Ligature2: "'liga' Standard Ligatures lookup 0-1" f j
EndChar

StartChar: quoteleft
Encoding: 8216 8216 152
Width: 509
VWidth: 0
Flags: W
HStem: 1081 444
VStem: 96 326<1133.86 1355.38>
LayerCount: 3
Fore
SplineSet
96 1243 m 4
 96 1304 128 1356 178 1385 c 6
 422 1525 l 5
 422 1243 l 6
 422 1153 348 1081 258 1081 c 4
 168 1081 96 1153 96 1243 c 4
EndSplineSet
Validated: 1
EndChar

StartChar: quoteright
Encoding: 8217 8217 153
Width: 509
VWidth: 0
Flags: W
HStem: 1071 444
VStem: 96 326<1240.62 1462.14>
LayerCount: 3
Fore
SplineSet
422 1353 m 4
 422 1292 390 1240 340 1211 c 6
 96 1071 l 5
 96 1353 l 6
 96 1443 170 1515 260 1515 c 4
 350 1515 422 1443 422 1353 c 4
EndSplineSet
Validated: 1
EndChar

StartChar: quotedblright
Encoding: 8221 8221 154
Width: 986
VWidth: 0
Flags: W
HStem: 1071 444
VStem: 101 326<1240.62 1462.14> 569 326<1240.62 1462.14>
LayerCount: 3
Fore
SplineSet
895 1353 m 4
 895 1292 863 1240 813 1211 c 6
 569 1071 l 5
 569 1353 l 6
 569 1443 643 1515 733 1515 c 4
 823 1515 895 1443 895 1353 c 4
427 1353 m 4
 427 1292 395 1240 345 1211 c 6
 101 1071 l 5
 101 1353 l 6
 101 1443 175 1515 265 1515 c 4
 355 1515 427 1443 427 1353 c 4
EndSplineSet
Validated: 1
EndChar

StartChar: quotedblbase
Encoding: 8222 8222 155
Width: 986
VWidth: 0
Flags: W
HStem: -132 444
VStem: 101 326<37.6153 259.135> 569 326<37.6153 259.135>
LayerCount: 3
Fore
SplineSet
895 150 m 0
 895 89 863 37 813 8 c 2
 569 -132 l 1
 569 150 l 2
 569 240 643 312 733 312 c 0
 823 312 895 240 895 150 c 0
427 150 m 0
 427 89 395 37 345 8 c 2
 101 -132 l 1
 101 150 l 2
 101 240 175 312 265 312 c 0
 355 312 427 240 427 150 c 0
EndSplineSet
Validated: 1
EndChar

StartChar: uni201F
Encoding: 8223 8223 156
Width: 986
VWidth: 0
Flags: W
HStem: 1071 444
VStem: 101 326<1240.62 1462.14> 569 326<1240.62 1462.14>
LayerCount: 3
Fore
SplineSet
101 1353 m 0
 101 1443 173 1515 263 1515 c 0
 353 1515 427 1443 427 1353 c 2
 427 1071 l 1
 183 1211 l 2
 133 1240 101 1292 101 1353 c 0
569 1353 m 0
 569 1443 641 1515 731 1515 c 0
 821 1515 895 1443 895 1353 c 2
 895 1071 l 1
 651 1211 l 2
 601 1240 569 1292 569 1353 c 0
EndSplineSet
Validated: 1
EndChar

StartChar: quotedblleft
Encoding: 8220 8220 157
Width: 986
VWidth: 0
Flags: W
HStem: 1081 444
VStem: 101 326<1133.86 1355.38> 569 326<1133.86 1355.38>
LayerCount: 3
Fore
SplineSet
101 1243 m 0
 101 1304 133 1356 183 1385 c 2
 427 1525 l 1
 427 1243 l 2
 427 1153 353 1081 263 1081 c 0
 173 1081 101 1153 101 1243 c 0
569 1243 m 0
 569 1304 601 1356 651 1385 c 2
 895 1525 l 1
 895 1243 l 2
 895 1153 821 1081 731 1081 c 0
 641 1081 569 1153 569 1243 c 0
EndSplineSet
Validated: 1
EndChar

StartChar: bullet
Encoding: 8226 8226 158
Width: 1099
VWidth: 0
Flags: W
HStem: 595 327<138.411 357.589>
VStem: 85 326<646.072 871.452>
LayerCount: 3
Fore
SplineSet
248 595 m 0
 158 595 85 669 85 759 c 0
 85 849 158 922 248 922 c 0
 338 922 411 849 411 759 c 0
 411 669 338 595 248 595 c 0
EndSplineSet
Validated: 1
EndChar

StartChar: acutecomb
Encoding: 769 769 159
Width: 1306
VWidth: 0
Flags: W
HStem: 1091 341
VStem: 433 487
LayerCount: 3
Fore
SplineSet
433 1091 m 5
 433 1432 l 5
 920 1432 l 5
 433 1091 l 5
EndSplineSet
Validated: 1
EndChar

StartChar: uni0302
Encoding: 770 770 160
Width: 1318
VWidth: 0
Flags: W
HStem: 1091 341
LayerCount: 3
Back
SplineSet
433 1091 m 5
 433 1432 l 5
 920 1432 l 5
 433 1091 l 5
EndSplineSet
Fore
SplineSet
805 1091 m 5
 660 1432 l 5
 1146 1091 l 5
 805 1091 l 5
513 1091 m 5
 172 1091 l 5
 658 1432 l 5
 513 1091 l 5
EndSplineSet
Validated: 1
EndChar

StartChar: gravecomb
Encoding: 768 768 161
Width: 1306
VWidth: 0
Flags: W
HStem: 1091 341
VStem: 432.6 487
LayerCount: 3
Fore
SplineSet
919.599609375 1091 m 5
 432.599609375 1432 l 5
 919.599609375 1432 l 5
 919.599609375 1091 l 5
EndSplineSet
Validated: 1
EndChar

StartChar: dotlessi
Encoding: 305 305 162
Width: 1309
VWidth: 0
Flags: W
HStem: 10 21G<101.85 428.85> 952 20G<101.85 428.85>
VStem: 101.85 327<10 972>
LayerCount: 3
Fore
SplineSet
101.849609375 972 m 1
 428.849609375 972 l 1
 428.849609375 10 l 1
 101.849609375 10 l 1
 101.849609375 972 l 1
EndSplineSet
Validated: 1
EndChar

StartChar: uni0308
Encoding: 776 776 163
Width: 1158
VWidth: 0
Flags: W
HStem: 1119 327<227.711 446.888 708.711 927.888>
VStem: 174.3 326<1170.07 1395.45> 655.3 326<1170.07 1395.45>
LayerCount: 3
Fore
SplineSet
818.299804688 1119 m 4
 728.299804688 1119 655.299804688 1193 655.299804688 1283 c 4
 655.299804688 1373 728.299804688 1446 818.299804688 1446 c 4
 908.299804688 1446 981.299804688 1373 981.299804688 1283 c 4
 981.299804688 1193 908.299804688 1119 818.299804688 1119 c 4
337.299804688 1119 m 4
 247.299804688 1119 174.299804688 1193 174.299804688 1283 c 4
 174.299804688 1373 247.299804688 1446 337.299804688 1446 c 4
 427.299804688 1446 500.299804688 1373 500.299804688 1283 c 4
 500.299804688 1193 427.299804688 1119 337.299804688 1119 c 4
EndSplineSet
Validated: 1
EndChar

StartChar: uni030A
Encoding: 778 778 164
Width: 1309
VWidth: 0
Flags: W
HStem: 1053 392
VStem: 432.6 121<1128.1 1369.9> 748.6 121<1128.1 1369.9>
LayerCount: 3
Fore
SplineSet
658.599609375 1445 m 5
 782.599609375 1445 869.599609375 1357 869.599609375 1249 c 4
 869.599609375 1141 782.599609375 1053 658.599609375 1053 c 5
 745.599609375 1053 748.599609375 1141 748.599609375 1249 c 4
 748.599609375 1357 745.599609375 1445 658.599609375 1445 c 5
643.599609375 1445 m 5
 556.599609375 1445 553.599609375 1357 553.599609375 1249 c 4
 553.599609375 1141 556.599609375 1053 643.599609375 1053 c 5
 519.599609375 1053 432.599609375 1141 432.599609375 1249 c 4
 432.599609375 1357 519.599609375 1445 643.599609375 1445 c 5
EndSplineSet
Validated: 1
EndChar

StartChar: uni0307
Encoding: 775 775 165
Width: 1182
VWidth: 0
Flags: W
HStem: 1119 327<479.711 698.888>
VStem: 426.3 326<1170.07 1395.45>
LayerCount: 3
Fore
SplineSet
589.299804688 1119 m 0
 499.299804688 1119 426.299804688 1193 426.299804688 1283 c 0
 426.299804688 1373 499.299804688 1446 589.299804688 1446 c 0
 679.299804688 1446 752.299804688 1373 752.299804688 1283 c 0
 752.299804688 1193 679.299804688 1119 589.299804688 1119 c 0
EndSplineSet
Validated: 1
EndChar

StartChar: Ccaron
Encoding: 268 268 174
Width: 1342
VWidth: 0
Flags: W
LayerCount: 3
Fore
SplineSet
1054.54980469 2029 m 1
 728.549804688 1637 l 1
 653.549804688 1727 l 1
 903.549804688 2029 l 1
 1054.54980469 2029 l 1
613.549804688 2029 m 1
 510.549804688 1899 l 1
 402.549804688 2029 l 1
 613.549804688 2029 l 1
EndSplineSet
Refer: 85 67 N 1 0 0 1 0 0 3
Validated: 1
EndChar

StartChar: ccaron
Encoding: 269 269 175
Width: 1103
VWidth: 0
Flags: W
LayerCount: 3
Fore
SplineSet
979.200195312 1496 m 1
 653.200195312 1104 l 1
 578.200195312 1194 l 1
 828.200195312 1496 l 1
 979.200195312 1496 l 1
538.200195312 1496 m 1
 435.200195312 1366 l 1
 327.200195312 1496 l 1
 538.200195312 1496 l 1
EndSplineSet
Refer: 26 99 N 1 0 0 1 0 0 3
Validated: 1
EndChar

StartChar: Dcaron
Encoding: 270 270 176
Width: 1518
VWidth: 0
Flags: W
LayerCount: 3
Fore
SplineSet
1087.79980469 2029 m 1
 761.799804688 1637 l 1
 686.799804688 1727 l 1
 936.799804688 2029 l 1
 1087.79980469 2029 l 1
646.799804688 2029 m 1
 543.799804688 1899 l 1
 435.799804688 2029 l 1
 646.799804688 2029 l 1
EndSplineSet
Refer: 86 68 N 1 0 0 1 0 0 3
Validated: 1
EndChar

StartChar: Ecaron
Encoding: 282 282 181
Width: 1440
VWidth: 0
Flags: W
LayerCount: 3
Fore
SplineSet
872 1978 m 1
 1213 1978 l 1
 727 1637 l 1
 872 1978 l 1
580 1978 m 1
 725 1637 l 1
 239 1978 l 1
 580 1978 l 1
EndSplineSet
Refer: 60 69 N 1 0 0 1 0 0 3
Validated: 1
EndChar

StartChar: ecaron
Encoding: 283 283 182
Width: 1396
VWidth: 0
Flags: W
LayerCount: 3
Fore
SplineSet
800 1445 m 1
 1141 1445 l 1
 655 1104 l 1
 800 1445 l 1
508 1445 m 1
 653 1104 l 1
 167 1445 l 1
 508 1445 l 1
EndSplineSet
Refer: 22 101 N 1 0 0 1 0 0 3
Validated: 1
EndChar

StartChar: uni0304
Encoding: 772 772 185
Width: 1122
VWidth: 0
Flags: W
HStem: 1183 243<100 1022>
LayerCount: 3
Fore
SplineSet
1022 1183 m 1
 100 1183 l 1
 100 1426 l 1
 1022 1426 l 1
 1022 1183 l 1
EndSplineSet
Validated: 1
EndChar

StartChar: uni0305
Encoding: 773 773 186
Width: 1391
VWidth: 0
Flags: W
HStem: 1183 243<100 1291>
LayerCount: 3
Fore
SplineSet
1291 1183 m 5
 100 1183 l 5
 100 1426 l 5
 1291 1426 l 5
 1291 1183 l 5
EndSplineSet
Validated: 1
EndChar

StartChar: uni0306
Encoding: 774 774 187
Width: 0
VWidth: 0
HStem: 1152 122<530.097 771.903>
VStem: 455 392
LayerCount: 3
Fore
SplineSet
455 1364 m 5
 455 1277 543 1274 651 1274 c 4
 759 1274 847 1277 847 1364 c 5
 847 1240 759 1152 651 1152 c 4
 543 1152 455 1240 455 1364 c 5
EndSplineSet
Validated: 1
EndChar

